<svg id="logo" data-name="Camada 2" xmlns="http://www.w3.org/2000/svg" viewBox="0 0 1012.19 1008.19"><defs><style>.cls-1{fill:#fdfdfd;}.cls-2{fill:#009bfe;}.cls-3{fill:#03598f;}</style></defs><title>Logotipo Skynar</title><path class="cls-2" d="M507.49,977Q306.75,977,106,977c-34.25,0-62.1-22.34-69.47-55.51A70.6,70.6,0,0,1,35,906.1q0-402,0-804C35,61.7,65.76,31,106.28,31Q508,31,909.74,31C950.25,31,981,61.71,981,102.16q0,401.73,0,803.46C981,946.4,950.31,977,909.47,977Q708.48,977,507.49,977ZM595.7,580.56c1.08-1.24,2-2.74,3.28-3.66,4.09-2.85,3.48-5,0-8.26-12-11.31-23.64-22.94-35.37-34.52-4.73-4.67-9.68-9.14-13.73-14.44-2.22-2.9-4-3.4-6.82-.3-4.9,5.45-10.17,10.59-15.44,15.69-10.67,10.31-30.76,11.4-41.08,1Q418.6,468,350.49,400c-3.46-3.46-6.07-7.46-6.76-12.46h0l-.59-2.19a61.09,61.09,0,0,1,10.61-14.88q65.34-65,130.41-130.31c13.83-13.84,31.55-13.93,45.39-.1Q595,305.43,660.38,370.79a38.9,38.9,0,0,1,9.69,14.89,24,24,0,0,1-6.47,13c-5.36,5.63-10.88,11.11-16.32,16.66-2.31,2.36-6.13,4.51-6.51,7.16-.46,3.17,4.22,4.88,6.19,7.64a3,3,0,0,1,.22.44,39.68,39.68,0,0,1-4,3.75c-3.53,2.53-2.91,4.43,0,7.29q24.74,24.31,49,49.07c3.33,3.41,5.18,3.14,8.18-.12,4.83-5.25,10.13-10.05,15.16-15.11,9.18-9.22,17.52-19.09,23.42-30.8,8.77-17.4,13-35.79,11.93-55.32,0-1.83,0-3.66.06-5.49,1-31.35-8.79-58.89-30.8-81.21q-68.07-69-137.06-137.13c-41.7-41.22-111-41.05-152.74.11-32,31.58-63.75,63.5-95.57,95.31-12.61,12.6-25,25.4-37.71,37.9-11.9,11.7-21.38,24.88-27.31,40.6-6.28,16.68-8,33.89-6.87,51.53-1.26,5.43-.3,10.94.37,16.23,3.23,25.8,14.36,47.81,32.79,66.2q66,65.85,131.79,131.83a117.36,117.36,0,0,0,19.33,15.67c22.36,14.48,47.08,19.63,73.31,16.72,16.15-1.79,31.11-7.54,45-16.22,11.75-7.32,21-17.23,30.71-26.8C603.44,587.51,603.43,587.5,595.7,580.56Zm-232.75-1.74a51.73,51.73,0,0,1,4.69-5.07c2.4-2,2-3.27-.11-5.4q-25.74-25.43-51.18-51.17c-2.13-2.16-3.29-2.25-5.41,0-7,7.29-14.39,14.25-21.38,21.57a110.41,110.41,0,0,0-27.76,51.07c-3,12.12-2.79,24.37-2.73,36.66-.86,32.95,11,60.53,34.35,83.69Q359.72,776,425.59,842.23c16,16,35,26.13,57.32,30,37.92,6.58,71-3.42,98.31-30.35,44.11-43.48,87.7-87.5,131.5-131.3,11.9-11.9,21.6-25.28,27.5-41.18,4.88-13.16,7.87-26.65,6.71-40.82.08-2.49.13-5,.25-7.47,1.46-31.55-8.08-59.41-30.19-81.9q-68.67-69.84-138.45-138.58c-31.92-31.57-83.7-38.76-124-18.64-15.38,7.67-27.59,18.93-39.33,31-2.43,2.5-6.29,4.6-7,7.51-.92,3.63,4.46,5,6,8.24-1.62,1.66-3.14,3.42-4.88,5s-2.36,2.73-.31,4.76q26.06,25.85,51.92,51.9c2,2,3.41,1.88,5.32-.08,5.09-5.26,10.31-10.39,15.51-15.55a29.88,29.88,0,0,1,42.54-.14q67.13,67.06,134.2,134.17a26.59,26.59,0,0,1,7.77,13.65c-.88,6.29-4.61,10.92-8.89,15.21q-18,18-36,36l-95.93,95.88c-12.6,12.6-31.17,13.35-43.28,1.29q-67.43-67.18-134.61-134.59c-4-4.05-7.12-8.77-7.69-14.72a41,41,0,0,1,9.84-14.79c4.72-4.43,9.21-9.1,13.78-13.68C370.61,585.8,370.6,585.79,362.94,578.83Z" transform="translate(-0.91 -0.91)"/><path class="cls-1 skynar-bottom" d="M259.05,626.44c-.06-12.29-.22-24.53,2.73-36.66a110.41,110.41,0,0,1,27.76-51.07c7-7.32,14.36-14.28,21.38-21.57,2.12-2.2,3.28-2.12,5.41,0q25.45,25.73,51.18,51.17c2.15,2.13,2.51,3.38.11,5.4a51.79,51.79,0,0,0-4.69,5.07,126.6,126.6,0,0,0-17.88,17.83c-5.75,7.14-7.88,15.59-5.2,24.77.58,5.94,3.65,10.66,7.69,14.72q67.24,67.36,134.61,134.59c12.11,12.06,30.68,11.3,43.28-1.29l95.93-95.88q18-18,36-36c4.28-4.29,8-8.92,8.88-15.21,3.3-11.56-.1-21.28-8.34-29.52q-66.58-66.65-133.24-133.23c-12.3-12.28-30.75-12.1-43.23.23-4.61,4.55-9.5,8.86-13.73,13.73-3.06,3.52-4.72,3.77-8.2.21-14.9-15.23-30.18-30.09-45.32-45.08-1.56-3.21-6.95-4.61-6-8.24.74-2.91,4.59-5,7-7.51,11.74-12.07,24-23.33,39.33-31,40.32-20.11,92.09-12.93,124,18.64Q648.18,469.5,717,539.21c22.11,22.49,31.65,50.35,30.19,81.9-.11,2.49-.17,5-.25,7.47a31.65,31.65,0,0,0-.9,3.35,108.45,108.45,0,0,1-31.23,61.15c-42.06,42.09-84.34,84-126.17,126.3-15.94,16.13-33.13,29.73-55.54,35.52-40.32,10.41-76.49,2.11-106.27-26.8-46.25-44.9-91.38-90.94-136.89-136.6a107.91,107.91,0,0,1-22.07-33C263.32,648.21,261.34,637.3,259.05,626.44Z" transform="translate(-0.91 -0.91)"/><path class="cls-1 skynar-top" d="M647.17,430.6a3,3,0,0,0-.22-.44c-2-2.76-6.65-4.47-6.19-7.64.39-2.65,4.2-4.8,6.51-7.16,5.44-5.55,11-11,16.32-16.66a24,24,0,0,0,6.47-13c2.78-10.71-.17-20.09-7.71-27.67-44.75-45-89.73-89.72-134.48-134.68-10.72-10.77-31.24-11.86-43.24.34-36.37,37-73.26,73.46-109.94,110.13-8.09,8.09-16,16.35-24.31,24.22-7.16,6.8-10.55,21.43-7.21,27.33l.59,2.19h0c.7,5,3.3,9,6.76,12.46q68,68.08,136.07,136.13c10.33,10.35,30.41,9.26,41.08-1,5.28-5.1,10.55-10.23,15.44-15.69,2.79-3.1,4.6-2.6,6.82.3,4.06,5.3,9,9.77,13.73,14.44C575.36,545.7,587,557.34,599,568.65c3.45,3.26,4.06,5.41,0,8.26-1.31.91-2.2,2.42-3.28,3.66-1.7,1.57-3.51,3-5.09,4.71-16.53,17.69-36,30.45-60,35.33-38.57,7.85-72.72-1.45-100.79-29-45.08-44.2-89.4-89.18-134.06-133.8a119.26,119.26,0,0,1-16.81-21c-8.83-14.06-13.49-29.55-16-45.81-1.15-17.63.58-34.84,6.87-51.53,5.92-15.72,15.41-28.9,27.31-40.6,12.71-12.5,25.11-25.3,37.71-37.9,31.82-31.8,63.53-63.73,95.57-95.31,41.77-41.16,111-41.33,152.74-.11q68.94,68.14,137.06,137.13c22,22.32,31.81,49.86,30.8,81.21-.06,1.83,0,3.66-.06,5.48a17.47,17.47,0,0,0-.6,2.39,108.37,108.37,0,0,1-16.79,47c-9.68,15.17-23.59,26.47-35.84,39.29-2.2,2.3-2.86-.28-3.74-1.14Q674.69,458,655.58,439C652.76,436.25,650,433.42,647.17,430.6Z" transform="translate(-0.91 -0.91)"/><path class="cls-3" d="M259.05,626.44c2.29,10.86,4.27,21.77,8.81,32a107.91,107.91,0,0,0,22.07,33c45.51,45.66,90.64,91.7,136.89,136.6,29.78,28.91,65.95,37.21,106.27,26.8,22.41-5.79,39.6-19.39,55.54-35.52,41.83-42.32,84.11-84.2,126.17-126.3A108.45,108.45,0,0,0,746,631.94a31.65,31.65,0,0,1,.9-3.35c1.16,14.16-1.83,27.65-6.71,40.81-5.9,15.9-15.6,29.29-27.5,41.18-43.8,43.8-87.39,87.82-131.5,131.3-27.31,26.92-60.39,36.93-98.31,30.35-22.31-3.87-41.34-14-57.32-30q-66.08-66.06-132.2-132.09C270.06,687,258.19,659.39,259.05,626.44Z" transform="translate(-0.91 -0.91)"/><path class="cls-3" d="M343.17,385.34c-3.34-5.9.05-20.53,7.21-27.33,8.3-7.87,16.22-16.13,24.31-24.22,36.68-36.67,73.57-73.15,109.94-110.13,12-12.2,32.52-11.11,43.24-.34,44.75,45,89.74,89.71,134.48,134.68,7.54,7.58,10.49,17,7.71,27.67a38.88,38.88,0,0,0-9.69-14.89q-65.46-65.31-130.8-130.73c-13.83-13.83-31.56-13.74-45.39.1Q419,305.37,353.78,370.47A61.09,61.09,0,0,0,343.17,385.34Z" transform="translate(-0.91 -0.91)"/><path class="cls-3" d="M262.93,391c2.5,16.26,7.17,31.75,16,45.81a119.26,119.26,0,0,0,16.81,21c44.66,44.63,89,89.6,134.06,133.8,28.07,27.53,62.22,36.82,100.79,29,24-4.88,43.49-17.64,60-35.33,1.57-1.68,3.38-3.15,5.09-4.71,7.73,6.94,7.74,7,.56,14.07-9.67,9.57-19,19.48-30.71,26.8-13.94,8.68-28.89,14.43-45,16.22-26.23,2.91-50.95-2.23-73.31-16.72a117.36,117.36,0,0,1-19.33-15.67q-65.81-66-131.79-131.83C277.66,455,266.52,433,263.3,407.23,262.64,401.94,261.68,396.44,262.93,391Z" transform="translate(-0.91 -0.91)"/><path class="cls-3" d="M414.19,428.74c15.14,15,30.42,29.85,45.32,45.08,3.48,3.56,5.14,3.31,8.2-.21,4.23-4.88,9.12-9.18,13.73-13.73,12.48-12.33,30.93-12.51,43.23-.23q66.67,66.56,133.24,133.23c8.24,8.25,11.63,18,8.34,29.52a26.57,26.57,0,0,0-7.76-13.65q-67.12-67.07-134.2-134.17a29.88,29.88,0,0,0-42.54.14c-5.2,5.16-10.41,10.29-15.51,15.55-1.9,2-3.28,2.13-5.32.08Q435,464.3,409,438.44c-2-2-1.47-3.18.31-4.76S412.57,430.4,414.19,428.74Z" transform="translate(-0.91 -0.91)"/><path class="cls-3" d="M647.17,430.6c2.8,2.82,5.59,5.65,8.41,8.44q19.15,19,38.36,37.85c.88.86,1.54,3.44,3.74,1.14,12.26-12.82,26.16-24.12,35.84-39.29a108.37,108.37,0,0,0,16.79-47,17.47,17.47,0,0,1,.6-2.39C752,408.91,747.76,427.3,739,444.7c-5.9,11.71-14.24,21.58-23.42,30.8-5,5.06-10.34,9.86-15.16,15.11-3,3.26-4.85,3.53-8.18.12q-24.24-24.81-49-49.07c-2.92-2.87-3.54-4.76,0-7.29A39.68,39.68,0,0,0,647.17,430.6Z" transform="translate(-0.91 -0.91)"/><path class="cls-3" d="M339.87,621.43c-2.68-9.18-.55-17.63,5.2-24.77a126.6,126.6,0,0,1,17.88-17.83c7.66,7,7.67,7,.54,14.13-4.57,4.59-9.06,9.26-13.78,13.68A41,41,0,0,0,339.87,621.43Z" transform="translate(-0.91 -0.91)"/><path class="cls-3" d="M343.73,387.53h0Z" transform="translate(-0.91 -0.91)"/></svg>